<?xml version="1.0" encoding="UTF-8" standalone="no"?>
<!-- Generator: Adobe Illustrator 19.1.0, SVG Export Plug-In . SVG Version: 6.00 Build 0)  -->

<svg
   version="1.1"
   id="Layer_1"
   x="0px"
   y="0px"
   viewBox="0 0 805.29999 140.2"
   xml:space="preserve"
   sodipodi:docname="alphalyse_logo_full.svg"
   width="805.29999"
   height="140.2"
   inkscape:version="1.2 (dc2aedaf03, 2022-05-15)"
   xmlns:inkscape="http://www.inkscape.org/namespaces/inkscape"
   xmlns:sodipodi="http://sodipodi.sourceforge.net/DTD/sodipodi-0.dtd"
   xmlns="http://www.w3.org/2000/svg"
   xmlns:svg="http://www.w3.org/2000/svg"><defs
   id="defs83" /><sodipodi:namedview
   id="namedview81"
   pagecolor="#ffffff"
   bordercolor="#000000"
   borderopacity="0.25"
   inkscape:showpageshadow="2"
   inkscape:pageopacity="0.0"
   inkscape:pagecheckerboard="0"
   inkscape:deskcolor="#d1d1d1"
   showgrid="false"
   inkscape:zoom="1.2399194"
   inkscape:cx="405.26829"
   inkscape:cy="79.037398"
   inkscape:window-width="1920"
   inkscape:window-height="1009"
   inkscape:window-x="1912"
   inkscape:window-y="-8"
   inkscape:window-maximized="1"
   inkscape:current-layer="Layer_1" />
<style
   type="text/css"
   id="style2">
	.st0{fill-rule:evenodd;clip-rule:evenodd;fill:#005792;}
	.st1{fill:#00415F;}
</style>

<g
   id="g482"
   transform="translate(0,7.45)"><g
     id="g56"
     transform="translate(-68.5,-44.75)">
	<path
   class="st0"
   d="m 253.3,37.3 c 5.6,0 10.1,4.5 10.1,10.1 0,5.6 -4.5,10.1 -10.1,10.1 -5.6,0 -10.1,-4.5 -10.1,-10.1 0,-5.6 4.6,-10.1 10.1,-10.1 z"
   id="path4" />
	<path
   class="st0"
   d="m 268.2,146.5 c 5,0 9.1,4.1 9.1,9.1 0,5 -4.1,9.1 -9.1,9.1 -5,0 -9.1,-4.1 -9.1,-9.1 0,-5.1 4.1,-9.1 9.1,-9.1 z"
   id="path6" />
	<path
   class="st0"
   d="m 260.4,134 c 3.4,0 6.2,2.8 6.2,6.2 0,3.4 -2.8,6.2 -6.2,6.2 -3.4,0 -6.2,-2.8 -6.2,-6.2 0,-3.5 2.8,-6.2 6.2,-6.2 z"
   id="path8" />
	<path
   class="st0"
   d="m 253.4,125.8 c -2.5,0 -4.6,2 -4.6,4.6 0,2.5 2,4.6 4.6,4.6 2.5,0 4.6,-2 4.6,-4.6 0,-2.6 -2.1,-4.6 -4.6,-4.6 z"
   id="path10" />
	<path
   class="st0"
   d="m 247.6,118.5 c 2.1,0 3.8,1.7 3.8,3.8 0,2.1 -1.7,3.8 -3.8,3.8 -2.1,0 -3.8,-1.7 -3.8,-3.8 0,-2.1 1.7,-3.8 3.8,-3.8 z"
   id="path12" />
	<path
   class="st0"
   d="m 241.1,111.4 c -2.1,0 -3.8,1.7 -3.8,3.8 0,2.1 1.7,3.8 3.8,3.8 2.1,0 3.8,-1.7 3.8,-3.8 0.1,-2.1 -1.7,-3.8 -3.8,-3.8 z"
   id="path14" />
	<path
   class="st0"
   d="m 209.1,78.4 c 2.1,0 3.8,1.7 3.8,3.8 0,2.1 -1.7,3.8 -3.8,3.8 -2.1,0 -3.8,-1.7 -3.8,-3.8 0,-2.1 1.7,-3.8 3.8,-3.8 z"
   id="path16" />
	<path
   class="st0"
   d="m 201.6,70.6 c 2.1,0 3.8,1.7 3.8,3.8 0,2.1 -1.7,3.8 -3.8,3.8 -2.1,0 -3.8,-1.7 -3.8,-3.8 0,-2 1.7,-3.8 3.8,-3.8 z"
   id="path18" />
	<path
   class="st0"
   d="m 194,64.3 c -2.1,0 -3.8,1.7 -3.8,3.8 0,2.1 1.7,3.8 3.8,3.8 2.1,0 3.8,-1.7 3.8,-3.8 0,-2.1 -1.7,-3.8 -3.8,-3.8 z"
   id="path20" />
	<path
   class="st0"
   d="m 185.7,58.5 c 2.1,0 3.8,1.7 3.8,3.8 0,2.1 -1.7,3.8 -3.8,3.8 -2.1,0 -3.8,-1.7 -3.8,-3.8 0,-2.1 1.7,-3.8 3.8,-3.8 z"
   id="path22" />
	<path
   class="st0"
   d="m 177.2,53.2 c 2.2,0 4,1.8 4,4 0,2.2 -1.8,4 -4,4 -2.2,0 -4,-1.8 -4,-4 0,-2.2 1.8,-4 4,-4 z"
   id="path24" />
	<path
   class="st0"
   d="m 168.2,48.5 c 2.3,0 4.2,1.9 4.2,4.2 0,2.3 -1.9,4.2 -4.2,4.2 -2.3,0 -4.2,-1.9 -4.2,-4.2 0,-2.3 1.9,-4.2 4.2,-4.2 z"
   id="path26" />
	<path
   class="st0"
   d="m 158.7,44.7 c 2.3,0 4.2,1.9 4.2,4.2 0,2.3 -1.9,4.2 -4.2,4.2 -2.3,0 -4.2,-1.9 -4.2,-4.2 0,-2.3 1.9,-4.2 4.2,-4.2 z"
   id="path28" />
	<path
   class="st0"
   d="m 148.6,42 c 2.3,0 4.2,1.9 4.2,4.2 0,2.3 -1.9,4.2 -4.2,4.2 -2.3,0 -4.2,-1.9 -4.2,-4.2 0,-2.3 1.9,-4.2 4.2,-4.2 z"
   id="path30" />
	<path
   class="st0"
   d="m 136.6,40 c 2.6,0 4.7,2.1 4.7,4.7 0,2.6 -2.1,4.7 -4.7,4.7 -2.6,0 -4.7,-2.1 -4.7,-4.7 0,-2.6 2.1,-4.7 4.7,-4.7 z"
   id="path32" />
	<path
   class="st0"
   d="m 123.7,39.9 c 2.9,0 5.2,2.3 5.2,5.2 0,2.9 -2.3,5.2 -5.2,5.2 -2.9,0 -5.2,-2.3 -5.2,-5.2 0,-2.9 2.3,-5.2 5.2,-5.2 z"
   id="path34" />
	<path
   class="st0"
   d="m 108.2,42.5 c 3.9,0 7,3.2 7,7 0,3.9 -3.2,7 -7,7 -3.9,0 -7,-3.2 -7,-7 0,-3.9 3.1,-7 7,-7 z"
   id="path36" />
	<path
   class="st0"
   d="m 91.3,53.1 c -5.5,0 -10,4.5 -10,10 0,5.5 4.5,10 10,10 5.5,0 10,-4.5 10,-10 -0.1,-5.5 -4.5,-10 -10,-10 z"
   id="path38" />
	<path
   class="st0"
   d="m 82.4,76.9 c 7.7,0 13.9,6.2 13.9,13.9 0,7.7 -6.2,13.9 -13.9,13.9 -7.7,0 -13.9,-6.2 -13.9,-13.9 0,-7.7 6.2,-13.9 13.9,-13.9 z"
   id="path40" />
	<path
   class="st0"
   d="m 92.8,109.3 c 8.9,0 16,7.2 16,16 0,8.9 -7.2,16 -16,16 -8.9,0 -16,-7.2 -16,-16 0,-8.8 7.1,-16 16,-16 z"
   id="path42" />
	<path
   class="st0"
   d="m 118.8,133.8 c -8.9,0 -16,7.2 -16,16 0,8.9 7.2,16 16,16 8.9,0 16,-7.2 16,-16 0.1,-8.9 -7.1,-16 -16,-16 z"
   id="path44" />
	<path
   class="st0"
   d="m 152.6,145.5 c 8.9,0 16,7.2 16,16 0,8.9 -7.2,16 -16,16 -8.9,0 -16,-7.2 -16,-16 0,-8.8 7.1,-16 16,-16 z"
   id="path46" />
	<path
   class="st0"
   d="m 189,140 c 8.9,0 16,7.2 16,16 0,8.9 -7.2,16 -16,16 -8.9,0 -16,-7.2 -16,-16 -0.1,-8.8 7.1,-16 16,-16 z"
   id="path48" />
	<path
   class="st0"
   d="m 217.1,116.1 c -8.9,0 -16,7.2 -16,16 0,8.9 7.2,16 16,16 8.9,0 16,-7.2 16,-16 0.1,-8.9 -7.1,-16 -16,-16 z"
   id="path50" />
	<path
   class="st0"
   d="m 226.3,81.7 c 8.9,0 16,7.2 16,16 0,8.9 -7.2,16 -16,16 -8.9,0 -16,-7.2 -16,-16 0,-8.9 7.2,-16 16,-16 z"
   id="path52" />
	<circle
   class="st0"
   cx="233.60001"
   cy="66"
   r="12.7"
   id="circle54" />
</g><g
     id="g78"
     transform="translate(-68.5,-37.3)">
	<path
   class="st1"
   d="m 325.6,63.6 0.7,-0.6 9.5,-1.2 0.7,0.5 26.8,75.9 -0.3,0.6 h -9 l -0.7,-0.6 -6.2,-18.2 h -31.5 l -6.1,18.2 -0.6,0.6 h -9.2 l -0.3,-0.6 z m 18.5,47.8 -11.7,-34.8 -1.1,-4.9 -1.1,4.9 -11.7,34.8 z"
   id="path58" />
	<path
   class="st1"
   d="m 375,63.6 0.6,-0.7 8.4,-1.1 0.6,0.5 v 67.4 h 32.5 l 0.5,0.6 -2,7.9 -0.7,0.6 h -39.2 l -0.6,-0.6 V 63.6 Z"
   id="path60" />
	<path
   class="st1"
   d="m 428.6,63 0.6,-0.6 H 449 c 7.1,0 13.2,1 17.9,3.7 6,3.5 9.5,9.7 9.5,19 0,13.2 -7.9,24.5 -25.2,24.5 -6.2,0 -11.6,-1.7 -13.7,-6.6 l 0.6,4.5 V 138 l -0.6,0.6 h -8.4 L 428.5,138 V 63 Z m 20.2,38.2 c 10.1,0 17.7,-4.9 17.7,-15.8 0,-11.5 -8.5,-14.2 -17.5,-14.2 h -11 v 28.1 c 3,1 6.9,1.9 10.8,1.9 z"
   id="path62" />
	<path
   class="st1"
   d="m 491.2,63.6 0.6,-0.7 8.4,-1.1 0.6,0.5 v 32 H 541 V 63.6 l 0.6,-0.7 8.4,-1.1 0.6,0.5 v 75.9 l -0.6,0.6 h -8.4 l -0.6,-0.6 v -34.9 h -40.2 v 34.9 l -0.6,0.6 h -8.4 l -0.6,-0.6 z"
   id="path64" />
	<path
   class="st1"
   d="m 588.7,63.6 0.7,-0.6 9.5,-1.2 0.7,0.5 26.8,75.9 -0.3,0.6 h -9 L 616.4,138.2 610,120 h -31.5 l -6.1,18.2 -0.6,0.6 h -9.2 l -0.3,-0.6 z m 18.5,47.8 -11.7,-34.8 -1.1,-4.9 -1.1,4.9 -11.7,34.8 z"
   id="path66" />
	<path
   class="st1"
   d="m 638.2,63.6 0.6,-0.7 8.4,-1.1 0.6,0.5 v 67.4 h 32.5 l 0.5,0.6 -2,7.9 -0.7,0.6 h -39.2 l -0.6,-0.6 V 63.6 Z"
   id="path68" />
	<path
   class="st1"
   d="m 701.1,105.3 -22.9,-41.5 0.6,-0.8 9.5,-1.2 0.7,0.5 15,30 1.8,4.4 1.9,-4.4 14.3,-28.5 0.6,-0.7 10.3,-1.4 0.7,0.5 -23,43 v 32.9 l -0.6,0.6 h -8.4 l -0.6,-0.6 v -32.8 z"
   id="path70" />
	<path
   class="st1"
   d="m 740.3,132.5 4.6,-6.3 1,-0.1 c 3.3,2.8 10.5,5 15.5,5 8,0 14.8,-3.5 14.8,-13 0,-18.2 -33.8,-10.2 -33.8,-35 0,-13.6 10.4,-21.7 22.6,-21.7 11.3,0 18.4,4.6 19.4,5.6 l 0.1,0.8 -4.3,6.6 -0.9,0.1 c -3.2,-2.4 -8,-4.1 -13.9,-4.1 -9,0 -13.3,5.2 -13.3,12.3 0,16.9 33.8,9.2 33.8,35.3 0,16.9 -13.4,22.1 -24.9,22.1 -5.3,0 -14.7,-2.1 -20.6,-6.8 z"
   id="path72" />
	<path
   class="st1"
   d="m 802.8,63 0.6,-0.6 h 39.2 l 0.6,0.6 v 7.9 l -0.6,0.6 h -30.3 v 22.6 h 26.3 l 0.5,0.6 -2,7.9 -0.7,0.6 h -24.1 v 26.6 h 30.4 l 0.5,0.6 -1.1,7.9 -0.7,0.6 h -38 l -0.6,-0.6 z"
   id="path74" />
	<path
   class="st1"
   d="m 854.6,70.5 v -8.6 h -3.5 l -0.2,-0.2 v -1.5 l 0.2,-0.2 h 9.2 l 0.1,0.2 -0.4,1.5 -0.2,0.2 h -3.2 v 8.6 l -0.2,0.2 h -1.7 z m 7.1,0 V 60.2 l 0.2,-0.2 1.6,-0.2 0.2,0.2 4.1,7.4 4.1,-7.2 0.1,-0.2 1.6,-0.2 0.2,0.2 v 10.5 l -0.2,0.2 H 872 l -0.1,-0.2 v -6.4 l -3.1,5.5 -0.2,0.2 H 867 l -0.2,-0.2 -3.1,-5.6 v 6.6 l -0.2,0.2 h -1.7 z"
   id="path76" />
</g></g>
</svg>
